<?xml version="1.0" encoding="UTF-8"?><svg id="Layer_22" xmlns="http://www.w3.org/2000/svg" viewBox="0 0 49.69 50"><defs><style>.cls-1{fill:#7723b7;}</style></defs><path class="cls-1" d="m40.95,9.85c0-10.66-12.22-12.87-16.11-5.63C20.95-3.02,8.73-.81,8.73,9.85c0,9.06,11.2,16.82,16.11,20.55,4.91-3.73,16.11-11.49,16.11-20.55Zm-15.26,40.15h12.18v-4.79h-12.18v4.79Zm1.61-3.53c.45,0,.81.36.81.81s-.36.81-.81.81-.81-.36-.81-.81.36-.81.81-.81Zm-14.18-7.13c.43,1.23.48,4.92.48,4.92h9.22l-.91-9.25c-.51-5.43-7.33-6.15-13.62-15.9-.45-.57-1.22-.8-1.91-.56h-.03c-.9.32-1.38,1.3-1.07,2.2l2.86,6.06c.34.72,1.27,1.95,1.87,2.82l-2.86-2.01c-.29-.3-.5-.66-.64-1.05l-2.36-5.43c-.36-1.06-.08-2.18.64-2.94-.25-1.25-.26-3.91-.1-5.64l.5-5.13c-.03-.97-.84-1.73-1.81-1.7h-.03c-.81.03-1.5.61-1.66,1.4l-1.17,5.39C.16,14.2-.01,15.92,0,17.64l.08,9.35c.21,2.12,1.48,3.84,3.07,5.27.77.69,9.47,5.62,9.98,7.07ZM49.16,12.52l-1.17-5.39c-.16-.8-.85-1.37-1.66-1.4h-.03c-.97-.03-1.78.73-1.81,1.7l.5,5.13c.17,1.73.16,4.38-.09,5.64.72.76,1,1.88.64,2.94l-2.36,5.43c-.14.4-.35.75-.64,1.05l-2.86,2.01c.59-.87,1.53-2.1,1.86-2.82l2.86-6.06c.31-.9-.17-1.88-1.07-2.19h-.03c-.69-.25-1.46-.02-1.91.55-6.29,9.75-13.11,10.48-13.62,15.9l-.91,9.25h9.22s.05-3.7.48-4.92c.51-1.45,9.22-6.38,9.98-7.07,1.58-1.42,2.86-3.15,3.07-5.27l.08-9.35c.01-1.72-.16-3.44-.53-5.13ZM11.81,50h12.18v-4.79h-12.18v4.79Zm10.57-3.53c.45,0,.81.36.81.81s-.36.81-.81.81-.81-.36-.81-.81.36-.81.81-.81Z"/></svg>